<?xml version="1.0" encoding="utf-8"?>
<!-- Generator: Adobe Illustrator 16.0.0, SVG Export Plug-In . SVG Version: 6.00 Build 0)  -->
<!DOCTYPE svg PUBLIC "-//W3C//DTD SVG 1.1//EN" "http://www.w3.org/Graphics/SVG/1.1/DTD/svg11.dtd">
<svg version="1.1" xmlns="http://www.w3.org/2000/svg" xmlns:xlink="http://www.w3.org/1999/xlink" x="0px" y="0px" width="960px"
	 height="960px" viewBox="0 0 960 960" enable-background="new 0 0 960 960" xml:space="preserve">
<g id="Layer_1">
	<g>
		<path fill="#FFFFFF" d="M344.069,677.808l-20.735-58.729c-0.443-1.168-0.883-3.065-0.883-4.539c0-4.225,3.355-8.168,8.622-8.168
			c4.378,0,7.295,2.918,8.616,7.017l14.902,46.747l15.048-46.747c1.321-4.099,4.528-7.017,9.062-7.017h1.02
			c4.525,0,7.747,2.918,9.059,7.017l15.192,46.747l15.053-46.9c1.162-3.798,3.938-6.863,8.611-6.863
			c4.821,0,8.323,3.801,8.323,8.168c0,1.32-0.438,3.076-0.722,3.953l-21.042,59.312c-1.9,5.409-5.556,7.9-9.787,7.9h-0.59
			c-4.383,0-8.031-2.491-9.633-7.6l-15.053-45.878l-15.198,45.878c-1.605,5.119-5.255,7.6-9.488,7.6h-0.588
			C349.478,685.705,345.827,683.214,344.069,677.808 M457.545,577.887c-4.999,0-8.838,3.355-8.838,8.61v0.886
			c0,5.262,3.839,8.765,8.838,8.765c4.99,0,8.834-3.503,8.834-8.765v-0.88C466.379,581.242,462.535,577.887,457.545,577.887
			 M457.468,606.371c-4.963,0-8.764,3.943-8.764,8.911v61.062c0,4.958,3.935,8.77,8.764,8.77c4.968,0,8.911-3.812,8.911-8.77
			v-61.065c0-4.965-3.943-8.911-8.911-8.911 M486.874,646.835v0.284c0,19.584,13.582,32.154,29.215,32.154
			c15.484,0,30.379-13.002,30.379-31.998v-0.29c0-19.136-14.902-31.993-30.379-31.993c-16.216,0.003-29.215,11.827-29.215,31.84
			 M553.194,704.692c0,2.19-1.463,3.653-3.508,3.653c-2.04,0-3.653-1.463-3.653-3.653v-36.961
			c-6.426,9.778-15.923,18.399-30.678,18.399c-17.959,0-36.231-14.451-36.231-38.702v-0.304c0-24.238,18.269-39.004,36.234-39.004
			c14.9,0,24.544,8.479,30.683,17.828v-13.002c0-2.054,1.458-3.658,3.5-3.658c2.043,0,3.653,1.604,3.653,3.658v91.748V704.692z
			 M634.88,681.303c0,2.053-1.466,3.661-3.508,3.661c-2.043,0-3.65-1.466-3.65-3.661v-10.796
			c-4.964,8.767-13.301,15.624-26.874,15.624c-18.849,0-29.806-12.849-29.806-30.672v-42.512c0-2.193,1.452-3.658,3.506-3.658
			c2.037,0,3.653,1.465,3.653,3.658v41.194c0,15.337,8.618,25.422,23.663,25.422c14.604,0,25.857-11.099,25.857-26.587v-40.029
			c0-2.193,1.465-3.658,3.502-3.658c2.049,0,3.656,1.465,3.656,3.658V681.303L634.88,681.303z M710.131,656.471v-8.463
			c-6.275-1.61-14.607-3.36-25.269-3.36c-15.777,0-24.547,7.011-24.547,17.374v0.29c0,10.817,10.232,17.102,21.618,17.102
			c15.201,0,28.197-9.347,28.197-22.929 M652.722,662.766v-0.301c0-15.477,13.298-24.249,32.578-24.249
			c10.369,0,17.533,1.318,24.691,3.222v-3.222c0-15.042-9.201-22.791-24.538-22.791c-8.185,0-15.053,2.054-21.184,4.972
			c-0.591,0.284-1.17,0.439-1.616,0.439c-1.747,0-3.353-1.61-3.353-3.357c0-1.753,1.31-2.939,2.04-3.219
			c7.594-3.366,15.056-5.548,24.547-5.548c10.076,0,18.118,2.775,23.521,8.167c4.96,4.975,7.597,11.846,7.597,21.05v43.374
			c0,2.195-1.463,3.661-3.5,3.661c-2.049,0-3.515-1.466-3.515-3.661v-9.338c-5.113,7.164-14.309,14.166-28.481,14.166
			c-13.885,0-28.788-7.889-28.788-23.368 M740.043,646.835v0.284c0,19.584,13.582,32.154,29.215,32.154
			c15.479,0,30.39-13.002,30.39-31.998v-0.29c0-19.136-14.91-31.99-30.39-31.99C753.045,614.995,740.043,626.824,740.043,646.835
			 M806.372,681.303c0,2.195-1.469,3.661-3.514,3.661c-2.04,0-3.646-1.466-3.646-3.661v-13.571
			c-6.431,9.778-15.931,18.399-30.688,18.399c-17.965,0-36.229-14.451-36.229-38.702v-0.304c0-24.238,18.264-39.004,36.229-39.004
			c14.908,0,24.545,8.479,30.688,17.828v-45.145c0-2.18,1.452-3.646,3.506-3.646c2.04,0,3.65,1.466,3.65,3.646v100.498H806.372z
			 M826.763,612.947c0-2.054,1.454-3.658,3.505-3.658c2.04,0,3.653,1.465,3.653,3.658v18.11
			c6.429-14.462,19.434-22.346,29.95-22.346c2.196,0,3.798,1.747,3.798,3.951c0,2.031-1.468,3.782-3.806,3.933
			c-15.778,1.463-29.947,13.297-29.947,37.253v27.454c0,2.053-1.461,3.661-3.492,3.661c-2.057,0-3.661-1.466-3.661-3.661V612.947
			L826.763,612.947z M936.473,647.423v-0.304c0-17.959-13.439-32.279-30.686-32.279c-17.67,0-30.388,14.465-30.388,31.995v0.284
			c0,17.979,13.451,32.294,30.678,32.294C923.766,679.413,936.473,664.951,936.473,647.423 M867.669,647.423v-0.304
			c0-20.891,16.207-38.998,38.408-38.998c22.066,0,38.137,17.823,38.137,38.711v0.287c0,20.899-16.213,39.012-38.424,39.012
			C883.734,686.131,867.669,668.312,867.669,647.423"/>
		<path fill="#FFFFFF" d="M26.748,581.042h127.489c7.036,0,12.74,5.712,12.74,12.767c0,7.025-5.704,12.732-12.74,12.732H39.501
			v135.113h135.132V626.939c0-7.035,5.704-12.748,12.745-12.748c7.036,0,12.745,5.713,12.745,12.748v127.459
			c0,7.039-5.709,12.746-12.745,12.746H26.748c-7.039,0-12.748-5.707-12.748-12.746v-160.59
			C14,586.754,19.709,581.042,26.748,581.042"/>
		<path fill="#FFFFFF" d="M243.426,711.059H115.945c-7.042,0-12.748-5.707-12.748-12.742c0-7.045,5.707-12.757,12.748-12.757
			h114.733V550.472H95.541v114.714c0,7.027-5.704,12.729-12.74,12.729c-7.049,0-12.756-5.701-12.756-12.729V537.718
			c0-7.03,5.707-12.742,12.756-12.742h160.625c7.042,0,12.748,5.712,12.748,12.742v160.599c0,7.035-5.707,12.73-12.748,12.73"/>
		<g>
			<g>
				<defs>
					<rect id="SVGID_1_" x="70.056" y="606.371" width="25.482" height="7.812"/>
				</defs>
				<use xlink:href="#SVGID_1_"  overflow="visible" fill="#FFFFFF"/>
				<clipPath id="SVGID_2_">
					<use xlink:href="#SVGID_1_"  overflow="visible"/>
				</clipPath>
				<path clip-path="url(#SVGID_2_)" fill="#FFFFFF" d="M70.056,606.371h25.482v7.812H70.056V606.371z"/>
			</g>
		</g>
		<g>
			<g>
				<defs>
					<rect id="SVGID_3_" x="174.633" y="711.059" width="25.49" height="7.817"/>
				</defs>
				<use xlink:href="#SVGID_3_"  overflow="visible" fill="#FFFFFF"/>
				<clipPath id="SVGID_4_">
					<use xlink:href="#SVGID_3_"  overflow="visible"/>
				</clipPath>
				<path clip-path="url(#SVGID_4_)" fill="#FFFFFF" d="M174.633,711.059h25.49v7.817h-25.49V711.059z"/>
			</g>
		</g>
	</g>
	<g>
		<polygon fill="#FFFFFF" points="150.208,389.764 202.778,389.764 250.77,203.6 198.2,203.6 		"/>
		<polygon fill="#FFFFFF" points="535.063,203.6 487.071,389.764 539.644,389.764 587.634,203.6 		"/>
		<polygon fill="#FFFFFF" points="455.693,203.6 359.435,342.291 323.681,203.6 271.11,203.6 319.103,389.764 326.486,389.764 
			371.672,389.764 386.439,389.764 515.646,203.6 		"/>
		<polygon fill="#FFFFFF" points="750.068,204.684 704.88,204.684 690.112,204.684 560.905,390.848 620.861,390.848 
			717.119,252.157 752.87,390.848 805.441,390.848 757.449,204.684 		"/>
		<path fill="#FFFFFF" d="M807.466,212.118c-1.551-2.789-3.714-4.932-6.49-6.429c-2.778-1.497-5.625-2.244-8.541-2.244
			c-2.915,0-5.763,0.747-8.538,2.244c-2.779,1.497-4.947,3.64-6.505,6.429c-1.558,2.786-2.336,5.694-2.336,8.716
			c0,2.997,0.768,5.877,2.303,8.641c1.535,2.763,3.678,4.908,6.434,6.438c2.754,1.527,5.634,2.292,8.643,2.292
			c3.01,0,5.887-0.765,8.643-2.292c2.756-1.53,4.896-3.676,6.424-6.438c1.524-2.764,2.29-5.644,2.29-8.641
			C809.791,217.812,809.016,214.904,807.466,212.118z M805.001,228.035c-1.271,2.298-3.06,4.086-5.362,5.367
			c-2.3,1.282-4.701,1.923-7.204,1.923c-2.5,0-4.903-0.641-7.203-1.923c-2.306-1.281-4.097-3.069-5.375-5.367
			c-1.282-2.295-1.926-4.695-1.926-7.201c0-2.515,0.654-4.941,1.961-7.265c1.302-2.327,3.11-4.113,5.421-5.37
			c2.308-1.251,4.684-1.874,7.122-1.874c2.425,0,4.795,0.623,7.113,1.874c2.314,1.257,4.123,3.043,5.42,5.37
			c1.297,2.323,1.945,4.75,1.945,7.265C806.913,223.34,806.275,225.74,805.001,228.035z"/>
		<path fill="#FFFFFF" d="M795.475,223.07c-0.4-0.385-0.93-0.714-1.588-0.99c1.608-0.124,2.902-0.693,3.875-1.704
			c0.976-1.014,1.462-2.206,1.462-3.571c0-0.971-0.292-1.883-0.872-2.741c-0.585-0.861-1.367-1.462-2.351-1.809
			c-0.979-0.347-2.568-0.52-4.762-0.52h-6.424v18.709h3.015v-7.948h1.772c1.06,0,1.864,0.215,2.417,0.643
			c0.801,0.586,1.849,2.039,3.156,4.357l1.656,2.948h3.681l-2.277-3.663C797.146,225.044,796.225,223.808,795.475,223.07z
			 M791.492,219.915h-3.662v-5.644h3.43c1.474,0,2.482,0.108,3.029,0.321c0.542,0.216,0.968,0.542,1.276,0.98
			c0.307,0.433,0.461,0.933,0.461,1.481c0,0.864-0.319,1.556-0.957,2.077C794.434,219.654,793.24,219.915,791.492,219.915z"/>
	</g>
</g>
<g id="Layer_2">
</g>
</svg>
